<?xml version="1.0" encoding="UTF-8"?><svg id="Layer_2" xmlns="http://www.w3.org/2000/svg" viewBox="0 0 562.46 95.36"><defs><style>.cls-1,.cls-2,.cls-3,.cls-4{fill:none;stroke:#fff;}.cls-1,.cls-2,.cls-4{stroke-linecap:round;}.cls-1,.cls-3{stroke-width:6px;}.cls-1,.cls-3,.cls-4{stroke-linejoin:round;}.cls-2{stroke-linejoin:bevel;}.cls-2,.cls-4{stroke-width:3px;}.cls-3{stroke-linecap:square;}.cls-5{fill:#fff;stroke-width:0px;}</style></defs><g id="Layer_1-2"><polyline class="cls-1" points="3 9.29 23.17 39.16 44.5 10.46 44.5 72.34"/><rect class="cls-3" x="74.04" y="9.29" width="40.32" height="63.22"/><polyline class="cls-1" points="137.57 9.29 172.3 9.29 172.3 40.91 137.57 40.91 171.76 72.52"/><polyline class="cls-1" points="192.88 72.52 219.9 9.29 246.95 72.52"/><line class="cls-2" x1="228.26" y1="28.93" x2="195.4" y2="65.39"/><line class="cls-2" x1="106.78" y1="25.56" x2="80.9" y2="55.55"/><path class="cls-5" d="m380.34,64.04c-.74.42-1.79.95-3.05.95-3.26-.32-5.47-2.63-5.47-5.68,0-9.47,18.83-22.52,28.09-25.88.63-.21,1.89-.53,2.95-.53.84,0,1.58.11,1.68.95,0,1.16-1.47,1.26-2.63,1.89-8.73,4.21-23.25,17.57-23.25,25.99,0,1.16,1.16,2.31,1.68,2.31Zm4.26-5.87c-4.13,1.31-9.84,2.92-14.66,6.16-2.57,1.72-3.28,2.78-3.28,3.54s1.18,1.05,2.49,1.05c12.6,0,30.19-9.32,43.32-21,6.3-5.51,14.83-15.23,14.83-23.89,0-11.95-15.23-16.28-27.04-16.28-18.38,0-35.97,6.69-49.75,19.03-3.41,3.02-6.17,6.56-6.3,11.68,0,4.2,3.54,5.78,3.54,7.22.13.26-.79.53-.92.53-5.78-1.58-9.58-9.45-9.71-13.52.13-4.2,3.81-9.19,8.4-13.39,14.05-12.73,33.08-19.3,52.64-19.3,11.03,0,21.27,2.49,27.44,9.06,4.2,4.33,6.83,10.24,6.83,17.46,0,10.5-8.66,23.1-19.95,32.29-13.19,10.55-29.63,17.85-41.61,17.85-4.2,0-8.93-3.54-8.93-8.4,1.31-7.61,15.24-11.78,23.51-11.78"/><path class="cls-5" d="m422.21,59.3c0-8.2,11.31-18.29,19.5-21.57,1.12-.43,2.07-.52,2.59-.52,1.99,0,5.52,4.75,5.87,6.39,0,4.83-9.75,9.92-14.84,9.92-1.99,0-2.68-.43-2.68-.78,0-.52,1.38-.43,1.81-.52,5.01-1.12,11.91-7.85,11.91-10.44-4.23,1.04-10.27,5.01-14.76,9.58-2.59,2.59-5.52,6.82-5.52,9.92,0,1.21.78,2.5,2.5,2.5,3.71-.26,10.53-5.01,13.64-8.11.26-.35.6-.43.78-.43.26,0,.35.17.35.52-.35,1.3-4.66,6.04-9.06,9.15-1.81,1.29-3.37,2.16-4.83,2.33-3.8,0-7.25-4.66-7.25-7.94Z"/><path class="cls-5" d="m468.55,36.43c1.81,0,3.02,2.07,3.88,3.63l.26.43c.69.52,1.38,1.47,1.38,2.68-.26,4.06-6.99,9.92-11.22,9.92-.09,0-.35-.35-.35-.52,1.38-.78,2.93-2.16,4.32-3.62,1.73-1.73,4.32-4.31,4.66-6.47,0-.52-.43-.69-1.12-.69-2.76,0-5.7.95-8.28,2.59-4.75,3.11-7.94,6.65-7.94,13.03,0,2.5.95,4.66.95,7.42,0,1.12-.43,2.42-1.81,2.42-4.49,0-10.53-5.35-10.53-10.36,0-.78.35-1.12.6-1.12.69,0,.6.78,1.29,2.42,1.12,2.59,3.45,4.75,6.56,5.18.43,0,.78-.35.78-1.04-.86-2.42-1.64-5.18-1.64-8.46,0-7.16,3.8-11.48,10.1-15.1,3.8-2.16,6.82-2.33,8.11-2.33Z"/><path class="cls-5" d="m481.5,40.06c.17-.26.35-.6.35-.78,0-.09-.09-.35-.09-.52s0-.26.17-.26c.6,0,1.12.26,1.73.52,1.21.69,2.76,1.99,2.76,3.62,0,.26-.17.69-.43,1.04-.6.95-1.99,2.16-3.45,3.88-4.75,5.26-8.2,9.49-10.7,13.89-.78,1.47-1.21,2.59-1.21,3.71,0,.35.52.09.69.6-.17.26-.35.26-.6.26-3.19-.43-3.45-1.81-3.54-3.37,0-6.21,13.89-21.75,14.33-22.61Zm4.92-3.37c-.35,0-.43-.09-.43-.35.09-.95,5.35-11.13,7.34-11.13,1.04.35,3.19,1.9,3.19,3.02-.09,1.9-7.34,6.73-9.41,8.03-.09.09-.43.43-.69.43Z"/><path class="cls-5" d="m495.65,62.67l5.61-12.08c-2.16,1.47-6.3,5.26-9.58,8.2-4.23,3.71-7.25,8.46-8.8,8.46-1.47,0-2.5-1.9-3.02-3.45-.26-.69-.26-1.47-.26-1.9,0-5.61,5.01-12.6,8.72-16.22,3.8-3.71,11.22-8.63,17.26-8.97,1.12,0,1.47.6,1.55.78,1.9,1.55,3.19,4.4,3.19,4.4.43.52.6,1.04.6,1.73,0,.78-.69,3.8-1.9,3.8-.17-.17-.17-.26-.17-.35.09-.43.95-1.38.95-2.59-.17-1.73-2.16-2.16-3.37-2.16-5.18,0-12.34,5.52-12.34,5.61-5.18,4.66-7.51,7.85-8.63,10.27-1.12,2.24-1.29,3.62-1.29,3.88,1.55-1.47,6.47-5.44,10.79-8.8,3.54-2.68,7.08-4.92,7.85-4.92-.09,0,.6-.09,2.16.95.95.69,1.81,1.12,1.81,1.98,0,.26-.35.95-.52,1.47-1.12,2.85-3.8,7.25-4.83,9.41.52,0,1.12.09,1.29.52,0,.69-.78.78-.78.78l-1.29.43c-2.07,3.37-3.37,5.35-5.18,7.85-4.23,6.04-12,15.79-19.24,15.79-2.59,0-3.88-1.55-3.88-3.71,0-5.7,10.96-14.24,10.79-14.24,4.23-3.54,10.18-6.21,12.51-6.9Zm-1.04,2.16c-4.66,1.81-19.07,12.43-19.42,19.07,0,.35.17.6.52.6,2.5,0,6.99-4.32,8.72-6.04,4.23-4.06,7.59-9.32,10.18-13.63Z"/><path class="cls-5" d="m521.8,38.76c1.29,0,3.88,1.73,3.88,3.28-.26,2.33-8.54,10.61-10.7,13.55,2.33-2.07,15.02-13.38,18.55-14.5.43-.09.86-.17,1.21-.17,1.3,0,3.45,1.81,3.45,3.28,0,.35,0,.6-1.64,2.33-3.28,3.88-8.89,10.79-8.97,15.1,0,1.29.09,3.45,1.99,3.45.09,0,.17.09.17.17,0,.69-.95.95-1.73.95-2.68,0-4.83-2.76-4.83-5.87,0-5.09,2.93-9.23,7.85-15.88-1.29.86-3.11,2.24-5.18,3.97-4.83,3.97-10.87,9.41-13.72,12.6-2.42,2.76-3.28,4.06-3.28,4.75,0,.26.09.43.17.6-.09.17-.35.17-.6.17-1.21,0-3.37-1.04-3.37-3.37,0-1.47,1.04-2.85,1.04-2.85,2.59-3.8,5.52-8.37,13.72-19.33-2.59,1.47-4.75,2.76-5.09,2.76-.43,0-.6-.26-.6-.43,0-.95,5.7-3.97,6.39-4.31.43-.17.86-.26,1.3-.26Z"/><path class="cls-5" d="m556.94,36.43c1.81,0,3.02,2.07,3.88,3.63l.26.43c.69.52,1.38,1.47,1.38,2.68-.26,4.06-6.99,9.92-11.22,9.92-.09,0-.35-.35-.35-.52,1.38-.78,2.93-2.16,4.32-3.62,1.73-1.73,4.32-4.31,4.66-6.47,0-.52-.43-.69-1.12-.69-2.76,0-5.7.95-8.28,2.59-4.75,3.11-7.94,6.65-7.94,13.03,0,2.5.95,4.66.95,7.42,0,1.12-.43,2.42-1.81,2.42-4.49,0-10.53-5.35-10.53-10.36,0-.78.35-1.12.6-1.12.69,0,.6.78,1.29,2.42,1.12,2.59,3.45,4.75,6.56,5.18.43,0,.78-.35.78-1.04-.86-2.42-1.64-5.18-1.64-8.46,0-7.16,3.8-11.48,10.1-15.1,3.8-2.16,6.82-2.33,8.11-2.33Z"/><path class="cls-5" d="m381.99,56.46c29.03-5.96,64.71,35.39,111.77,35.51,19.63.58,38.93-5.8,55.26-16.55,3.31-2.14,6.52-4.42,9.78-6.7,0,0,.59.81.59.81-3.11,2.43-6.22,4.92-9.48,7.21-31.44,22.9-68.16,23.69-102.9,7.78-14.48-6.42-27.99-15-42.36-21.37-7.03-2.96-14.57-5.36-22.22-4.27,0,0-.44-2.41-.44-2.41h0Z"/><line class="cls-2" x1="290.61" y1="12.88" x2="320.3" y2="47.28"/><line class="cls-2" x1="317.55" y1="32.3" x2="287.85" y2="66.71"/><polyline class="cls-4" points="273.11 23.02 282.9 37.51 293.25 23.58 293.25 53.61"/></g></svg>